<?xml version="1.0" encoding="utf-8"?>
<!-- Generator: Adobe Illustrator 23.0.2, SVG Export Plug-In . SVG Version: 6.00 Build 0)  -->
<svg version="1.1" id="Layer_1" xmlns="http://www.w3.org/2000/svg" xmlns:xlink="http://www.w3.org/1999/xlink" x="0px" y="0px"
	 viewBox="0 0 198.43 283.46" style="enable-background:new 0 0 198.43 283.46;" xml:space="preserve">
<style type="text/css">
	.st0{fill:#010101;}
</style>
<g>
	<g>
		<path class="st0" d="M76.88,86.9c0.19-1.43,0.38-2.86,0.57-4.29c0.12-0.89,0-2.81,0.51-3.54c-0.6,0.46-1.2,0.92-1.79,1.38
			c0.11-0.02,0.23-0.05,0.34-0.07c-0.97-0.26-1.95-0.51-2.92-0.77c1.84,1.84,2.13,5.07,5.59,4.18c2.69-0.69,4.71-4.7,6.34-6.78
			c-1.57-0.2-3.14-0.4-4.71-0.61c1.07,2.47,2.14,4.94,3.21,7.4c1.53,3.53,6.7,0.48,5.18-3.03c-1.07-2.47-2.14-4.94-3.21-7.4
			c-0.72-1.65-3.6-2.03-4.71-0.61c-0.83,1.05-1.65,2.11-2.48,3.16c-0.41,0.53-0.83,1.05-1.24,1.58c-0.79,0.83-0.87,1.01-0.23,0.54
			c0.77,0.1,1.54,0.2,2.31,0.3c0.78,0.87,0.81,0.78,0.08-0.28c-0.35-0.58-0.69-1.16-1.04-1.74c-0.4-0.54-0.85-1.12-1.45-1.45
			c-1.42-0.78-3.19-0.37-4.21,0.85c-1.06,1.26-1.04,2.94-1.25,4.49c-0.3,2.22-0.59,4.45-0.89,6.67c-0.22,1.62,1.53,2.98,3,3
			C75.68,89.92,76.67,88.5,76.88,86.9L76.88,86.9z"/>
	</g>
</g>
<g>
	<g>
		<path class="st0" d="M88.61,74.61c1.04,2.79,2.04,5.59,3.01,8.4c1.25,3.63,7.05,2.07,5.79-1.6c-0.97-2.81-1.97-5.61-3.01-8.4
			c-0.57-1.52-2.03-2.55-3.69-2.1C89.25,71.32,88.04,73.09,88.61,74.61L88.61,74.61z"/>
	</g>
</g>
<g>
	<g>
		<path class="st0" d="M97.02,74.28c-0.24-0.66-0.11-0.89-0.09-1.53c0-0.16,0.49-0.49,0.48-0.54c-0.96-0.28-1.92-0.57-2.88-0.85
			c0.04,0.21,0.08,0.42,0.12,0.64c-0.13,0.68,0.24,1.35-0.06,2.05c-0.41,0.97-1.2,1.45-1.35,2.63c-0.24,1.89,1.12,3.43,2.82,4.02
			c1.92,0.66,3.58,0.99,5.18,2.38c2.9,2.52,7.16-1.71,4.24-4.24c-1.33-1.16-2.7-2.11-4.33-2.8c-0.69-0.3-1.39-0.56-2.12-0.76
			c-0.39-0.08-0.78-0.17-1.17-0.27c0.1,3.25,0.61,4.11,1.52,2.58c1.8-2.06,1.62-5.84,0.8-8.28c-1.08-3.2-4.54-3.54-6.89-1.48
			c-2.24,1.97-3.09,5.25-2.06,8.05C92.56,79.47,98.36,77.92,97.02,74.28L97.02,74.28z"/>
	</g>
</g>
<g>
	<g>
		<path class="st0" d="M111.12,81.02c0.12-1.56,0.32-3.09,0.66-4.62c0.17-0.76,0.36-1.52,0.57-2.27c0.14-0.5,0.3-1,0.46-1.49
			c-2.71-0.51-3.66-0.23-2.83,0.84c0.41,1.31,1.81,2.87,2.54,4.04c0.91,1.46,1.81,2.93,2.71,4.41c2,3.29,7.19,0.28,5.18-3.03
			c-1.45-2.38-2.91-4.75-4.39-7.11c-1.22-1.94-2.46-4.25-5.1-4.18c-2.73,0.07-3.72,2.72-4.35,4.92c-0.79,2.77-1.23,5.62-1.45,8.49
			C104.82,84.87,110.82,84.85,111.12,81.02L111.12,81.02z"/>
	</g>
</g>
<g>
	<g>
		<path class="st0" d="M113.15,80.03c0.34-0.34,0.68-0.68,1.03-1.03c1.11-1.11,1.19-3.15,0-4.24c-1.2-1.1-3.06-1.19-4.24,0
			c-0.34,0.34-0.68,0.68-1.03,1.03c-1.11,1.11-1.19,3.15,0,4.24C110.11,81.13,111.96,81.22,113.15,80.03L113.15,80.03z"/>
	</g>
</g>
<g>
	<g>
		<path class="st0" d="M60.9,89.55c0.19-0.18,0.41-0.28,0.6-0.45c0.32-0.28,0.18-0.02,0.02-0.04c-0.5-0.14-1.01-0.27-1.51-0.41
			c-0.86-0.78-1.01-1.61-0.46-2.5c-0.13-0.07-0.25-0.01-0.37,0.17c-0.81,0.62,2.04,2.24,1.59,2.4c0.3-0.1,0.74-0.72,0.95-0.68
			c-0.44-0.26-0.88-0.51-1.32-0.77c0.4,0.4-0.44-0.84-0.15-0.66c0.13,0.08-0.23,0.23-0.32,0.27c-0.22,0.11-0.26,0.11-0.73,0.1
			c-0.21,0.03-0.42,0-0.62-0.09c-0.62-0.21-0.46-0.07,0.47,0.44c0.14,0.5,0.27,1.01,0.41,1.51c0.04,0.35-0.53,0.72-0.09,0.47
			c0.21-0.12,0.41-0.47,0.59-0.64c0.13-0.12,0.53-0.33,0.6-0.45c0.19-0.32,0.07,0.59-0.08-0.09c0.04,0.18-0.34-0.2-0.35-0.21
			c-0.24-0.25-0.21-1.09-0.2-1.09c0.05,0-0.8,0.35-0.84,0.35c-1.6,0.26-2.49,2.25-2.1,3.69c0.48,1.73,2.08,2.31,3.69,2.1
			c2.71-0.37,4.68-2.53,4.86-5.22c0.11-1.62-1.46-3-3-3c-1.71,0-2.89,1.38-3,3c0.05-0.82,0.52-0.7-0.45-0.57
			c0.53,1.93,1.06,3.86,1.6,5.79c2.75-0.44,5.29-3.16,5.19-6c-0.1-3.07-3.13-5.06-6-4.69c-1.48,0.19-2.75,0.88-3.85,1.86
			c-0.96,0.85-2.07,2.03-2.44,3.28c-1.07,3.6,2.58,5.51,5.6,5.56c2.75,0.04,5.48-1.42,6.53-4.03c1.15-2.86-0.13-6.64-3.55-6.86
			c-2.57-0.16-5.44,1.48-6.66,3.75c-1.6,2.97,0.49,6.63,3.93,6.5c3.27-0.12,6.61-3.14,5.55-6.56c-0.5-1.62-2.09-2.78-3.79-2.74
			c-1.73,0.04-3.32,1.14-4.54,2.27C53.82,87.94,58.07,92.17,60.9,89.55L60.9,89.55z"/>
	</g>
</g>
<g>
	<g>
		<path class="st0" d="M65.83,86.71c-0.5-6.04,0.69-11.58,1.79-17.49c-1.23,0.7-2.46,1.4-3.69,2.1c5.91,1.73,8.6-0.14,13.02-3.79
			c2.98-2.46-1.28-6.68-4.24-4.24c-2.67,2.2-3.54,3.32-7.18,2.25c-1.46-0.43-3.4,0.52-3.69,2.1c-1.2,6.44-2.56,12.51-2.01,19.08
			C60.15,90.53,66.16,90.56,65.83,86.71L65.83,86.71z"/>
	</g>
</g>
</svg>
